<svg width="256" height="258" viewBox="0 0 256 258" fill="none" xmlns="http://www.w3.org/2000/svg">
<rect width="256" height="258" rx="15" fill="url(#paint0_linear_2148_3462)"/>
<path fill-rule="evenodd" clip-rule="evenodd" d="M181.819 258C188.26 248.067 192 236.22 192 223.5C192 188.43 163.57 160 128.5 160C93.4299 160 65 188.43 65 223.5C65 236.22 68.7401 248.067 75.1806 258H181.819Z" fill="white"/>
<g filter="url(#filter0_f_2148_3462)">
<circle cx="18" cy="225" r="4" fill="white"/>
</g>
<g filter="url(#filter1_f_2148_3462)">
<circle cx="216" cy="135" r="4" fill="white"/>
</g>
<g filter="url(#filter2_f_2148_3462)">
<circle cx="28" cy="44" r="4" fill="white"/>
</g>
<g filter="url(#filter3_f_2148_3462)">
<circle cx="208" cy="190" r="4" fill="white"/>
</g>
<g filter="url(#filter4_f_2148_3462)">
<circle cx="88" cy="125" r="4" fill="white"/>
</g>
<g filter="url(#filter5_f_2148_3462)">
<circle cx="238" cy="21" r="4" fill="white"/>
</g>
<circle cx="185" cy="29" r="1" fill="white"/>
<circle cx="64" cy="101" r="1" fill="white"/>
<circle cx="45" cy="186" r="1" fill="white"/>
<circle cx="104" cy="22" r="1" fill="white"/>
<circle cx="9" cy="9" r="1" fill="white"/>
<circle cx="21" cy="132" r="1" fill="white"/>
<circle cx="156" cy="115" r="1" fill="white"/>
<circle cx="134" cy="143" r="1" fill="white"/>
<circle cx="239" cy="69" r="1" fill="white"/>
<circle cx="199" cy="103" r="1" fill="white"/>
<circle cx="128" cy="93" r="1" fill="white"/>
<circle cx="60" cy="13" r="1" fill="white"/>
<circle cx="50" cy="250" r="1" fill="white"/>
<circle cx="23" cy="194" r="1" fill="white"/>
<circle cx="204" cy="248" r="1" fill="white"/>
<g filter="url(#filter6_f_2148_3462)">
<circle cx="237" cy="225" r="1" fill="white"/>
</g>
<g filter="url(#filter7_f_2148_3462)">
<circle cx="215" cy="223" r="1" fill="white"/>
</g>
<g filter="url(#filter8_f_2148_3462)">
<circle cx="241" cy="187" r="1" fill="white"/>
</g>
<g filter="url(#filter9_f_2148_3462)">
<circle cx="52" cy="136" r="1" fill="white"/>
</g>
<g filter="url(#filter10_f_2148_3462)">
<circle cx="21" cy="88" r="1" fill="white"/>
</g>
<defs>
<filter id="filter0_f_2148_3462" x="10" y="217" width="16" height="16" filterUnits="userSpaceOnUse" color-interpolation-filters="sRGB">
<feFlood flood-opacity="0" result="BackgroundImageFix"/>
<feBlend mode="normal" in="SourceGraphic" in2="BackgroundImageFix" result="shape"/>
<feGaussianBlur stdDeviation="2" result="effect1_foregroundBlur_2148_3462"/>
</filter>
<filter id="filter1_f_2148_3462" x="208" y="127" width="16" height="16" filterUnits="userSpaceOnUse" color-interpolation-filters="sRGB">
<feFlood flood-opacity="0" result="BackgroundImageFix"/>
<feBlend mode="normal" in="SourceGraphic" in2="BackgroundImageFix" result="shape"/>
<feGaussianBlur stdDeviation="2" result="effect1_foregroundBlur_2148_3462"/>
</filter>
<filter id="filter2_f_2148_3462" x="20" y="36" width="16" height="16" filterUnits="userSpaceOnUse" color-interpolation-filters="sRGB">
<feFlood flood-opacity="0" result="BackgroundImageFix"/>
<feBlend mode="normal" in="SourceGraphic" in2="BackgroundImageFix" result="shape"/>
<feGaussianBlur stdDeviation="2" result="effect1_foregroundBlur_2148_3462"/>
</filter>
<filter id="filter3_f_2148_3462" x="200" y="182" width="16" height="16" filterUnits="userSpaceOnUse" color-interpolation-filters="sRGB">
<feFlood flood-opacity="0" result="BackgroundImageFix"/>
<feBlend mode="normal" in="SourceGraphic" in2="BackgroundImageFix" result="shape"/>
<feGaussianBlur stdDeviation="2" result="effect1_foregroundBlur_2148_3462"/>
</filter>
<filter id="filter4_f_2148_3462" x="80" y="117" width="16" height="16" filterUnits="userSpaceOnUse" color-interpolation-filters="sRGB">
<feFlood flood-opacity="0" result="BackgroundImageFix"/>
<feBlend mode="normal" in="SourceGraphic" in2="BackgroundImageFix" result="shape"/>
<feGaussianBlur stdDeviation="2" result="effect1_foregroundBlur_2148_3462"/>
</filter>
<filter id="filter5_f_2148_3462" x="230" y="13" width="16" height="16" filterUnits="userSpaceOnUse" color-interpolation-filters="sRGB">
<feFlood flood-opacity="0" result="BackgroundImageFix"/>
<feBlend mode="normal" in="SourceGraphic" in2="BackgroundImageFix" result="shape"/>
<feGaussianBlur stdDeviation="2" result="effect1_foregroundBlur_2148_3462"/>
</filter>
<filter id="filter6_f_2148_3462" x="232" y="220" width="10" height="10" filterUnits="userSpaceOnUse" color-interpolation-filters="sRGB">
<feFlood flood-opacity="0" result="BackgroundImageFix"/>
<feBlend mode="normal" in="SourceGraphic" in2="BackgroundImageFix" result="shape"/>
<feGaussianBlur stdDeviation="2" result="effect1_foregroundBlur_2148_3462"/>
</filter>
<filter id="filter7_f_2148_3462" x="210" y="218" width="10" height="10" filterUnits="userSpaceOnUse" color-interpolation-filters="sRGB">
<feFlood flood-opacity="0" result="BackgroundImageFix"/>
<feBlend mode="normal" in="SourceGraphic" in2="BackgroundImageFix" result="shape"/>
<feGaussianBlur stdDeviation="2" result="effect1_foregroundBlur_2148_3462"/>
</filter>
<filter id="filter8_f_2148_3462" x="236" y="182" width="10" height="10" filterUnits="userSpaceOnUse" color-interpolation-filters="sRGB">
<feFlood flood-opacity="0" result="BackgroundImageFix"/>
<feBlend mode="normal" in="SourceGraphic" in2="BackgroundImageFix" result="shape"/>
<feGaussianBlur stdDeviation="2" result="effect1_foregroundBlur_2148_3462"/>
</filter>
<filter id="filter9_f_2148_3462" x="47" y="131" width="10" height="10" filterUnits="userSpaceOnUse" color-interpolation-filters="sRGB">
<feFlood flood-opacity="0" result="BackgroundImageFix"/>
<feBlend mode="normal" in="SourceGraphic" in2="BackgroundImageFix" result="shape"/>
<feGaussianBlur stdDeviation="2" result="effect1_foregroundBlur_2148_3462"/>
</filter>
<filter id="filter10_f_2148_3462" x="16" y="83" width="10" height="10" filterUnits="userSpaceOnUse" color-interpolation-filters="sRGB">
<feFlood flood-opacity="0" result="BackgroundImageFix"/>
<feBlend mode="normal" in="SourceGraphic" in2="BackgroundImageFix" result="shape"/>
<feGaussianBlur stdDeviation="2" result="effect1_foregroundBlur_2148_3462"/>
</filter>
<linearGradient id="paint0_linear_2148_3462" x1="128" y1="0" x2="128" y2="258" gradientUnits="userSpaceOnUse">
<stop stop-color="#052659"/>
<stop offset="1" stop-color="#5483B3"/>
</linearGradient>
</defs>
</svg>
